<svg width="449" height="512" viewBox="0 0 449 512" fill="none" xmlns="http://www.w3.org/2000/svg">
<path d="M437.2 403.5L320 215V64H328C341.3 64 352 53.3 352 40V24C352 10.7 341.3 0 328 0H120C106.7 0 95.9999 10.7 95.9999 24V40C95.9999 53.3 106.7 64 120 64H128V215L10.7999 403.5C-18.5001 450.6 15.2999 512 70.8999 512H377.1C432.8 512 466.5 450.5 437.2 403.5ZM137.9 320L186.1 242.4C189.8 237.2 191.9 230.8 191.9 224V64H255.9V224C255.9 230.9 258.1 237.2 261.7 242.4L309.9 320H137.9Z" fill="white"/>
</svg>
