<?xml version="1.0" encoding="utf-8"?>
<!-- Generator: Adobe Illustrator 23.0.1, SVG Export Plug-In . SVG Version: 6.00 Build 0)  -->
<svg version="1.1" id="Camada_1" xmlns="http://www.w3.org/2000/svg" xmlns:xlink="http://www.w3.org/1999/xlink" x="0px" y="0px"
	 viewBox="0 0 250 100" style="enable-background:new 0 0 250 100;" xml:space="preserve">
<style type="text/css">
	.st0{fill:#FFFFFF;}
	.st1{fill:none;stroke:#DD4B39;stroke-width:2;stroke-miterlimit:10;}
	.st2{fill:#DD4B39;}
	.st3{fill:none;stroke:#1B1464;stroke-miterlimit:10;}
	.st4{fill:none;stroke:#DD4B39;stroke-miterlimit:10;}
</style>
<g>
	<g>
		<path class="st0" d="M93.1,21.3c0.04-0.17,0.21-0.29,0.38-0.29h0.46c0.21,0,0.34,0.08,0.42,0.29l8.65,25.79c0.04,0,0.04,0,0.08,0
			l8.7-25.79c0.08-0.21,0.21-0.29,0.42-0.29h0.46c0.17,0,0.34,0.13,0.38,0.29l5.96,28.99c0.08,0.42-0.08,0.55-0.46,0.55h-1.01
			c-0.25,0-0.46-0.21-0.5-0.46l-4.75-24.62c-0.04,0-0.08,0-0.08,0l-8.49,25.16c-0.08,0.25-0.34,0.34-0.59,0.34h-0.17
			c-0.21,0-0.46-0.04-0.55-0.34l-8.49-25.16c0,0-0.04,0-0.08,0L89.1,50.37c-0.04,0.25-0.25,0.46-0.5,0.46h-1.01
			c-0.38,0-0.55-0.13-0.46-0.55L93.1,21.3z"/>
		<path class="st0" d="M125.77,34.7c-0.17-0.34-0.13-0.67,0.25-0.67h0.92c0.21,0,0.42,0.13,0.55,0.38l7.18,14.2h0.08l6.55-14.2
			c0.13-0.25,0.34-0.38,0.55-0.38h0.92c0.38,0,0.42,0.34,0.25,0.67l-13.19,28.4c-0.08,0.21-0.34,0.34-0.55,0.34h-0.97
			c-0.34,0-0.46-0.21-0.29-0.59l5.67-12.18L125.77,34.7z"/>
		<path class="st0" d="M87.4,65.97c0-0.29,0.25-0.55,0.55-0.55h0.92c0.25,0,0.5,0.25,0.5,0.55v27.09h13.4c0.5,0,0.55,0.25,0.55,0.55
			v0.76c0,0.29-0.25,0.46-0.55,0.46H87.95c-0.29,0-0.55-0.25-0.55-0.55V65.97z"/>
		<path class="st0" d="M115.39,83.99c1.93,0,3.78,0.59,4.24,0.76c0-3.7-0.38-5.54-3.7-5.54c-2.77,0-4.66,1.01-5.04,1.13
			c-0.34,0.13-0.55-0.04-0.63-0.34l-0.21-0.5c-0.13-0.38,0.04-0.55,0.25-0.63c0.13-0.08,2.27-1.26,5.75-1.26
			c5.12,0,5.34,3.07,5.34,7.35v9.33c0,0.29-0.25,0.55-0.55,0.55h-0.5c-0.29,0-0.42-0.17-0.5-0.46l-0.17-1.51
			c-1.09,1.01-3.15,2.39-5.84,2.39c-3.11,0-5.5-2.14-5.5-5.59C108.33,86.43,110.98,83.99,115.39,83.99z M114.05,93.61
			c2.56,0,4.79-1.55,5.59-2.6v-4.62c-0.55-0.25-2.23-0.88-4.24-0.88c-3.19,0-5.33,1.64-5.33,4.12
			C110.06,92.05,111.74,93.61,114.05,93.61z"/>
		<path class="st0" d="M127.61,65.97c0-0.29,0.25-0.55,0.55-0.55h0.71c0.29,0,0.55,0.25,0.55,0.55v13.32c0,0,2.02-1.68,5.21-1.68
			c4.75,0,8.23,3.82,8.23,8.78c0,4.92-3.4,8.86-7.73,8.86c-3.23,0-5.34-1.89-5.84-2.48l-0.13,1.51c-0.04,0.38-0.25,0.55-0.59,0.55
			h-0.42c-0.29,0-0.55-0.25-0.55-0.55V65.97z M134.96,93.57c3.53,0,6.09-3.24,6.09-7.14c0-3.99-2.77-7.02-6.64-7.02
			c-3.02,0-4.96,1.76-4.96,1.76v9.41C129.54,90.75,131.35,93.57,134.96,93.57z"/>
	</g>
	<path class="st1" d="M142.64,69.48c10.77-8.5,14.72-23.52,9.47-36.21c-4.75-11.47-16.24-19.15-28.65-19.15
		c-8.18,0-16.14,3.3-21.92,9.08"/>
	<circle class="st2" cx="141.06" cy="70.68" r="1.06"/>
	<circle class="st2" cx="100.06" cy="24.68" r="1.06"/>
	<path class="st3" d="M143.63,67.43"/>
	<polyline class="st4" points="151.85,57.29 159.57,62.46 152.34,73.27 144.42,67.96 	"/>
	<polyline class="st4" points="153.92,38.79 162.87,38.62 163.13,51.61 153.36,51.81 	"/>
	<polyline class="st4" points="144.51,22.61 152.04,17.15 159.67,27.68 151.95,33.27 	"/>
	<polyline class="st4" points="139.84,18.25 142.66,9.73 130.33,5.64 127.4,14.47 	"/>
	<polyline class="st4" points="120.78,14.31 117.33,5.42 105.21,10.12 108.42,18.39 	"/>
	<path class="st2" d="M108.31,18.19c0,0,2.72-1.85,6.03-2.67c3.31-0.83,4.14-1.31,6.27-1.21l-3.07-8.59l-12.24,4.39L108.31,18.19z"
		/>
	<path class="st2" d="M127.62,14.12l2.69-8.37l12.12,3.75l-2.61,8.76C139.83,18.26,129.23,13.25,127.62,14.12z"/>
</g>
<path class="st2" d="M144.78,22.42L152,17l7.56,10.53l-7.39,5.58C152.17,33.11,146.55,22.84,144.78,22.42z"/>
<path class="st2" d="M154.15,38.79l8.15-0.17L163,51.38l-9.3,0.25C153.7,51.63,155.32,40.57,154.15,38.79z"/>
<path class="st2" d="M152.16,57.5l7.26,5.2l-6.87,10.26l-7.89-4.83C144.66,68.12,152.32,59,152.16,57.5z"/>
<g>
	<g>
		<path class="st2" d="M161.38,41.51c1.93,0,1.93-3,0-3C159.45,38.51,159.45,41.51,161.38,41.51L161.38,41.51z"/>
	</g>
</g>
</svg>
